<?xml version="1.0" standalone="no"?>
<!DOCTYPE svg PUBLIC "-//W3C//DTD SVG 20010904//EN"
 "http://www.w3.org/TR/2001/REC-SVG-20010904/DTD/svg10.dtd">
<svg version="1.0" xmlns="http://www.w3.org/2000/svg"
 width="1280.000000pt" height="640.000000pt" viewBox="0 0 1280.000000 640.000000"
 preserveAspectRatio="xMidYMid meet">
<g transform="translate(0.000000,640.000000) scale(0.100000,-0.100000)"
fill="#000000" stroke="none">
<path d="M8090 4889 c-512 -28 -1028 -86 -1590 -179 -341 -57 -545 -96 -1205
-235 -861 -180 -1153 -233 -1530 -274 -278 -31 -463 -41 -753 -41 -625 0
-1215 90 -1945 296 -86 24 -161 44 -166 44 -8 0 -31 -52 -31 -71 0 -5 33 -18
72 -30 40 -12 77 -25 81 -29 10 -9 -11 -86 -28 -100 -7 -6 -34 -2 -76 10 -92
28 -93 28 -113 -36 -10 -31 -16 -57 -14 -59 2 -2 64 -20 138 -40 74 -20 159
-43 188 -51 33 -9 52 -20 52 -29 0 -9 -79 -318 -176 -688 -97 -369 -211 -807
-254 -971 -43 -164 -84 -302 -90 -306 -12 -7 -232 46 -440 105 -53 16 -96 23
-101 18 -5 -5 -11 -23 -15 -40 -7 -35 -18 -28 116 -63 44 -12 50 -29 29 -89
-13 -36 -19 -37 -117 -12 l-74 19 -18 -41 c-10 -23 -15 -45 -11 -49 13 -13
394 -118 646 -177 611 -143 1190 -226 1827 -262 237 -13 1001 -7 1223 10 671
52 1249 138 2103 312 925 187 1205 243 1386 274 1002 172 1754 189 2655 59
551 -79 1245 -242 1845 -434 71 -22 134 -39 140 -37 6 3 17 22 25 43 59 168
105 284 113 284 5 0 46 -9 90 -21 44 -11 82 -18 85 -15 7 7 34 115 263 1070
116 484 213 883 216 888 3 4 16 8 29 8 19 0 26 9 39 47 16 46 11 62 -16 63
-13 0 -9 38 7 76 13 31 19 36 40 31 26 -4 45 15 45 47 0 17 -150 67 -513 170
-1022 291 -1968 451 -2997 506 -212 11 -965 11 -1180 -1z m648 -88 c9 -5 12
-25 10 -57 l-3 -49 -112 -3 -113 -3 0 30 c0 16 -3 36 -6 44 -3 8 2 22 11 31
13 12 37 16 108 16 51 0 98 -4 105 -9z m-315 -43 c10 -74 2 -79 -121 -76
l-107 3 -3 44 c-5 71 -6 71 116 71 l109 0 6 -42z m641 36 c11 -4 16 -19 16
-44 0 -69 -1 -70 -114 -70 -66 0 -106 4 -114 12 -13 13 -17 90 -5 101 8 9 196
9 217 1z m-966 -61 c4 -61 8 -59 -130 -67 -80 -5 -89 -3 -98 15 -6 11 -10 37
-8 57 3 34 6 38 38 43 19 4 71 6 115 5 l80 -1 3 -52z m1302 36 c9 -13 1 -90
-10 -102 -4 -4 -54 -4 -111 0 l-104 8 -3 44 c-6 75 -5 75 115 68 64 -4 109
-11 113 -18z m-1628 -49 c5 -31 4 -48 -5 -57 -7 -8 -51 -13 -117 -15 l-105 -3
-6 45 c-4 25 -2 50 3 57 10 13 77 20 168 19 l55 -1 7 -45z m1945 33 c8 -3 13
-21 13 -47 0 -68 -5 -70 -115 -62 -53 4 -103 10 -111 13 -15 6 -18 32 -8 83
l7 32 100 -7 c55 -4 106 -9 114 -12z m-2273 -35 c3 -13 6 -38 6 -55 0 -26 -5
-34 -22 -38 -44 -9 -183 -22 -195 -18 -16 6 -28 92 -15 105 11 11 98 25 173
27 40 1 47 -2 53 -21z m2594 1 c22 -8 23 -13 17 -52 -10 -64 -15 -66 -130 -53
l-100 11 -3 44 c-5 74 -4 75 100 66 50 -4 102 -11 116 -16z m334 -47 c12 -12
2 -98 -12 -107 -8 -5 -77 3 -189 21 l-33 5 4 51 c3 27 10 53 17 57 15 10 200
-14 213 -27z m-3249 -21 c6 -27 5 -47 -1 -53 -6 -6 -55 -17 -108 -25 -93 -14
-99 -13 -112 4 -7 10 -12 36 -10 58 l3 40 60 12 c33 6 82 11 110 10 l49 -2 9
-44z m-335 -3 c6 -7 12 -33 14 -58 l3 -44 -65 -12 c-141 -26 -148 -26 -159 -6
-5 10 -11 36 -13 58 l-3 39 90 16 c114 21 120 22 133 7z m3792 2 c132 -21 123
-16 118 -71 -3 -27 -8 -52 -12 -56 -7 -7 -181 12 -211 23 -14 6 -16 15 -10 53
11 70 6 68 115 51z m-4105 -76 c3 -13 7 -35 10 -48 6 -31 3 -33 -92 -51 -103
-20 -130 -19 -137 3 -15 54 -16 81 -5 88 18 11 192 42 207 36 7 -2 14 -15 17
-28z m4440 20 c50 -9 95 -21 102 -28 13 -12 3 -80 -15 -98 -7 -7 -45 -4 -114
9 l-103 19 3 44 c3 41 16 70 31 70 3 0 47 -7 96 -16z m-1767 -14 c311 -13 479
-24 489 -33 6 -7 -31 -306 -194 -1557 -31 -242 -60 -430 -67 -437 -9 -10 -40
-11 -136 -3 -198 15 -807 12 -1050 -5 -117 -9 -219 -14 -225 -11 -14 5 -14 12
-46 816 -11 283 -26 668 -34 855 -7 187 -10 343 -7 347 7 6 321 26 502 31 231
7 531 6 768 -3z m-2990 -84 c8 -27 10 -52 5 -57 -4 -4 -53 -17 -108 -28 -88
-17 -101 -18 -111 -5 -16 21 -27 85 -17 95 10 10 180 48 203 46 8 -1 20 -23
28 -51z m5082 38 c47 -9 90 -22 97 -28 16 -14 -3 -95 -24 -103 -13 -5 -91 7
-176 29 -38 9 -39 10 -32 46 14 83 7 80 135 56z m-3982 -47 c11 -13 13 -30
122 -997 39 -344 80 -710 92 -813 14 -123 17 -192 11 -198 -5 -5 -81 -21 -169
-34 -247 -39 -523 -90 -966 -179 -223 -45 -411 -80 -417 -78 -6 2 -11 10 -11
17 0 12 -199 830 -401 1649 -38 154 -69 290 -69 302 0 29 -11 26 375 103 497
99 806 153 1215 211 107 15 198 28 201 29 4 0 11 -5 17 -12z m3232 -33 c236
-34 513 -84 777 -139 265 -55 789 -185 809 -200 13 -9 -32 -152 -307 -970
-177 -528 -326 -964 -330 -969 -6 -6 -119 17 -296 62 -411 103 -623 147 -973
206 -80 13 -156 29 -170 35 -25 10 -24 10 8 10 17 1 32 5 32 9 0 7 113 1138
174 1739 13 127 27 236 31 242 4 7 20 9 38 6 18 -3 111 -17 207 -31z m1075 10
c104 -22 106 -23 91 -82 -15 -58 -22 -59 -141 -29 l-90 22 2 38 c3 49 20 79
41 73 9 -2 53 -12 97 -22z m-5726 -30 c8 -31 9 -50 2 -57 -16 -16 -202 -50
-213 -39 -12 12 -31 93 -23 100 8 8 156 40 191 41 29 1 32 -2 43 -45z m-329
-34 c6 -11 12 -37 13 -57 l2 -38 -102 -21 c-56 -12 -106 -18 -111 -15 -14 9
-35 92 -25 102 8 8 160 45 195 48 10 0 22 -8 28 -19z m6378 -10 c101 -24 105
-29 81 -99 -13 -37 -19 -38 -139 -10 l-92 21 6 46 c7 49 21 73 39 67 7 -2 54
-13 105 -25z m-6689 -77 c15 -53 14 -71 -6 -77 -62 -18 -195 -38 -203 -30 -16
17 -29 93 -16 102 17 11 146 40 183 41 29 1 33 -3 42 -36z m-3958 2 c50 -13
94 -26 96 -29 7 -7 -8 -74 -22 -93 -12 -16 -17 -16 -106 6 -52 13 -100 28
-106 34 -20 15 7 107 31 107 8 0 56 -11 107 -25z m10948 1 c51 -14 98 -29 103
-34 12 -12 -11 -92 -29 -99 -7 -3 -57 6 -111 19 l-97 25 2 30 c3 38 20 83 30
83 5 0 50 -11 102 -24z m-7309 -67 c18 -67 14 -72 -80 -91 -118 -24 -129 -23
-141 9 -5 15 -9 40 -7 57 3 29 5 30 88 47 129 25 128 25 140 -22z m-3326 -8
c49 -11 92 -23 97 -28 12 -12 -11 -94 -28 -100 -13 -5 -138 16 -195 33 -21 6
-22 24 -7 77 12 44 13 44 133 18z m10961 -11 c44 -12 84 -26 89 -30 11 -11 0
-71 -17 -94 -12 -16 -18 -16 -107 9 -118 33 -121 35 -107 83 14 48 26 64 46
58 9 -3 52 -14 96 -26z m-7955 -41 c19 -69 16 -72 -99 -92 -67 -12 -107 -15
-114 -8 -5 5 -12 30 -14 55 -6 53 -9 51 98 70 117 22 117 22 129 -25z m-2690
-8 l95 -17 3 -39 c2 -23 -3 -48 -11 -59 -13 -18 -19 -18 -98 -6 -128 20 -132
22 -124 73 7 41 21 68 34 66 3 0 49 -8 101 -18z m2366 -26 c3 -13 7 -39 7 -57
l2 -33 -75 -13 c-41 -7 -93 -11 -115 -10 -39 3 -40 4 -46 48 -4 25 -3 49 1 53
7 8 147 33 197 36 16 1 24 -6 29 -24z m-2055 -21 c113 -11 121 -15 113 -66
-10 -66 -15 -68 -126 -53 -53 7 -101 16 -107 19 -7 5 -9 23 -5 49 8 48 22 70
40 63 6 -2 45 -8 85 -12z m1729 -13 c5 -11 10 -38 10 -60 0 -37 -2 -41 -32
-46 -18 -3 -69 -7 -113 -8 l-80 -2 -9 43 c-6 31 -6 46 3 55 6 7 53 17 104 23
51 6 95 12 99 13 4 0 12 -8 18 -18z m-1302 -34 c14 -11 16 -75 3 -96 -7 -11
-29 -13 -110 -8 -56 3 -106 9 -111 12 -13 8 -13 71 0 95 10 18 19 19 108 13
53 -3 103 -10 110 -16z m987 -33 c9 -64 -1 -71 -117 -76 -113 -6 -121 -2 -116
64 3 39 6 44 33 49 17 4 67 7 111 8 l82 1 7 -46z m-722 29 l67 -6 0 -53 c0
-29 -5 -56 -10 -59 -6 -4 -57 -3 -115 1 l-105 7 0 52 c0 28 3 55 7 58 8 9 68
9 156 0z m385 -5 c15 -15 16 -94 2 -103 -6 -4 -53 -9 -105 -12 -69 -4 -99 -2
-110 7 -16 13 -20 76 -7 97 4 7 38 14 77 16 39 1 84 4 101 5 16 1 35 -3 42
-10z m1677 -18 c3 -5 19 -76 35 -157 16 -81 83 -425 150 -763 66 -338 141
-716 165 -839 25 -124 41 -229 37 -233 -17 -17 -648 -123 -997 -167 -367 -47
-753 -75 -717 -52 11 6 10 75 -7 387 -76 1426 -84 1605 -74 1615 5 5 75 16
154 24 304 31 736 97 1064 164 158 32 181 35 190 21z m-3185 -104 c316 -61
871 -116 1161 -116 67 0 80 -3 89 -19 7 -13 10 -345 10 -1004 0 -866 -2 -986
-15 -997 -26 -21 -606 3 -985 41 -276 27 -741 93 -812 115 -22 7 -23 23 -2 39
16 11 83 318 404 1848 26 123 17 118 150 93z m7193 -1520 c8 -11 1 -81 -9 -98
-7 -11 -167 -10 -198 2 -22 8 -26 16 -26 53 0 24 5 48 12 55 15 15 209 4 221
-12z m-325 -34 c5 -66 -5 -72 -123 -72 -85 0 -104 3 -109 16 -8 21 -8 89 1 98
4 3 57 5 117 4 l111 -3 3 -43z m640 32 c9 -3 12 -20 10 -56 l-3 -53 -109 2
c-120 1 -127 5 -119 62 9 64 4 62 110 55 54 -3 104 -7 111 -10z m-967 -42 c8
-64 0 -70 -121 -74 l-105 -3 -5 48 c-3 26 -3 51 0 56 8 13 54 19 145 17 l80
-1 6 -43z m1264 19 c39 -7 40 -8 39 -47 -1 -74 -2 -75 -101 -68 -124 10 -133
14 -133 67 0 24 5 48 11 54 11 11 101 8 184 -6z m-1594 -18 c5 -15 9 -41 7
-57 l-3 -31 -104 -13 c-66 -8 -108 -9 -114 -3 -5 5 -12 30 -14 55 -6 53 -6 54
94 65 119 14 122 14 134 -16z m1873 -13 c38 -6 75 -15 81 -20 13 -11 5 -84
-12 -101 -11 -11 -193 10 -211 24 -12 10 -9 76 5 100 6 10 54 9 137 -3z
m-2192 -50 c5 -31 4 -48 -5 -56 -6 -6 -54 -16 -106 -23 -76 -10 -97 -9 -106 1
-18 19 -26 85 -12 97 16 13 121 29 177 28 l45 -2 7 -45z m2544 -4 l59 -12 -3
-45 c-5 -69 -13 -73 -123 -54 -51 9 -99 21 -106 26 -13 11 -7 76 10 97 10 13
54 10 163 -12z m-2878 -3 c15 -28 23 -91 14 -97 -15 -9 -212 -39 -218 -33 -14
13 -25 90 -14 101 6 6 50 18 98 27 113 22 110 22 120 2z m3170 -50 c46 -9 86
-22 89 -29 7 -18 -16 -94 -30 -100 -17 -6 -196 31 -208 43 -7 7 -6 27 2 57 13
54 18 55 147 29z m-3490 -10 c17 -33 22 -81 9 -91 -7 -5 -56 -18 -110 -28 -81
-15 -100 -16 -107 -5 -10 17 -22 92 -16 99 7 6 163 40 193 41 12 1 26 -7 31
-16z m3794 -54 c51 -12 97 -25 101 -29 11 -9 -13 -101 -27 -106 -6 -2 -56 7
-111 19 l-100 23 2 37 c3 40 18 77 33 77 4 0 50 -10 102 -21z m-4113 -7 c5
-10 11 -36 13 -57 l3 -39 -100 -23 c-55 -12 -105 -20 -111 -18 -15 4 -37 96
-27 106 8 8 165 45 200 48 7 1 17 -7 22 -17z m4531 -119 c0 -21 -25 -93 -32
-93 -23 2 -193 51 -201 59 -12 12 -1 76 18 95 12 12 28 10 115 -11 92 -23 100
-27 100 -50z m-4852 55 c5 -7 13 -32 17 -55 l7 -42 -39 -10 c-104 -28 -173
-38 -182 -27 -14 17 -31 90 -23 98 7 7 164 45 193 47 9 1 21 -5 27 -11z
m-5880 -79 c48 -12 91 -25 95 -29 10 -9 -1 -73 -17 -95 -10 -14 -20 -14 -106
6 -52 12 -101 26 -107 31 -21 17 7 108 32 108 9 0 55 -10 103 -21z m5572 -20
c19 -68 16 -71 -97 -95 -117 -25 -119 -24 -129 49 l-6 45 78 17 c44 9 84 18
89 20 38 13 54 4 65 -36z m5374 10 c105 -28 111 -34 95 -89 -7 -23 -19 -44
-26 -47 -14 -5 -162 32 -196 49 -19 10 -19 26 3 83 12 30 22 31 124 4z
m-10617 -65 c45 -9 84 -23 87 -29 7 -18 -15 -96 -28 -101 -6 -2 -56 6 -111 19
l-100 22 2 38 c3 54 20 80 46 74 12 -3 59 -13 104 -23z m4927 -27 c12 -60 12
-60 -112 -83 -80 -15 -95 -16 -102 -4 -12 19 -24 90 -17 97 10 10 162 41 192
40 28 -2 31 -6 39 -50z m6013 -3 c46 -14 86 -31 89 -38 9 -22 -22 -91 -42 -94
-10 -1 -59 10 -109 26 -98 31 -102 37 -76 105 13 34 29 34 138 1z m-6351 -12
c14 -9 33 -87 25 -101 -4 -6 -52 -19 -106 -30 -114 -22 -119 -20 -130 46 -6
36 -4 44 11 50 14 5 146 35 184 42 3 0 10 -3 16 -7z m-4286 -18 c47 -10 90
-21 96 -26 13 -9 1 -85 -16 -102 -8 -8 -108 5 -182 25 -42 11 -45 20 -27 82
12 43 12 43 129 21z m3984 -76 c11 -56 7 -76 -16 -81 -64 -15 -177 -30 -190
-25 -19 8 -33 87 -18 102 12 12 188 45 206 38 7 -2 15 -17 18 -34z m-3655 17
c47 -9 88 -20 92 -26 9 -15 -6 -90 -21 -99 -10 -6 -159 13 -202 26 -21 6 -22
24 -7 77 12 43 14 44 138 22z m305 -46 c50 -7 97 -16 103 -22 14 -10 8 -84 -8
-101 -11 -12 -198 11 -216 26 -13 11 -12 36 3 91 6 20 3 20 118 6z m3026 -15
c16 -41 12 -82 -7 -88 -39 -11 -184 -28 -197 -23 -15 6 -33 93 -22 104 8 8
137 30 184 32 26 1 34 -4 42 -25z m-2679 -29 c91 -9 95 -13 83 -72 l-9 -48
-81 3 c-121 4 -138 11 -142 55 -5 55 13 80 51 73 18 -2 62 -8 98 -11z m2363
-38 c5 -31 5 -52 -2 -59 -5 -5 -55 -15 -111 -21 -118 -13 -123 -10 -119 63 l3
45 90 11 c130 17 128 17 139 -39z m-1961 -6 c5 -5 7 -30 5 -57 l-3 -49 -105 3
c-58 2 -111 8 -118 14 -12 11 -9 78 6 102 6 10 203 -2 215 -13z m1632 -41 l0
-55 -97 -9 c-54 -4 -104 -6 -111 -3 -19 7 -31 85 -16 103 11 13 82 21 174 20
l50 -1 0 -55z m-1302 20 c14 -13 3 -92 -14 -103 -11 -7 -50 -7 -115 -1 l-99 9
-3 43 c-5 69 5 74 122 67 56 -4 105 -11 109 -15z m981 -33 c6 -32 6 -51 -1
-58 -6 -6 -58 -12 -119 -12 l-109 -2 0 55 0 55 75 6 c41 3 91 5 110 5 34 -1
35 -3 44 -49z m-666 27 c9 -2 12 -20 10 -56 l-3 -53 -80 -3 c-44 -2 -95 0
-112 3 -32 6 -33 7 -33 60 0 31 5 55 12 57 14 5 188 -2 206 -8z m340 -42 c5
-66 -5 -72 -117 -72 -62 0 -101 4 -109 12 -13 13 -17 90 -5 102 4 3 57 5 117
4 l111 -3 3 -43z"/>
<path d="M390 1556 c0 -9 7 -16 16 -16 9 0 14 5 12 12 -6 18 -28 21 -28 4z"/>
</g>
</svg>
